<svg width="24" height="24" viewBox="0 0 24 24" fill="none" xmlns="http://www.w3.org/2000/svg">
<path d="M9 13L11 15L15 9M4 5H20C20.5523 5 21 5.44772 21 6V9C21 9.55228 20.5309 9.98622 20.0352 10.2296C19.4966 10.494 19 11.0236 19 12C19 12.9764 19.4966 13.506 20.0352 13.7704C20.5309 14.0138 21 14.4477 21 15V18C21 18.5523 20.5523 19 20 19H4C3.44772 19 3 18.5523 3 18V15C3 14.4477 3.46906 14.0138 3.96482 13.7704C4.50341 13.506 5 12.9764 5 12C5 11.0236 4.50341 10.494 3.96482 10.2296C3.46906 9.98622 3 9.55228 3 9V6C3 5.44772 3.44772 5 4 5Z" stroke="white" stroke-width="1.4" stroke-linecap="round" stroke-linejoin="round"/>
</svg>
