<svg width="24" height="24" viewBox="0 0 24 24" fill="none" xmlns="http://www.w3.org/2000/svg">
<g clip-path="url(#clip0_3331_1779)">
<path d="M7 21.55H9.23L11.56 22.5H19.48C20.1923 22.5007 20.8791 22.2356 21.4062 21.7566C21.9334 21.2776 22.2628 20.6191 22.33 19.91L23.21 10.78C23.21 10.64 23.21 10.5 23.21 10.36C23.21 9.78185 22.9803 9.22736 22.5715 8.81853C22.1627 8.4097 21.6082 8.18003 21.03 8.18003H16.36L16.88 7.09003C17.2898 6.23838 17.5017 5.30512 17.5 4.36003C17.5 3.98445 17.426 3.61254 17.2823 3.26555C17.1386 2.91856 16.9279 2.60328 16.6623 2.3377C16.3967 2.07213 16.0815 1.86146 15.7345 1.71773C15.3875 1.574 15.0156 1.50003 14.64 1.50003C14.3888 1.4987 14.1398 1.5472 13.9075 1.64272C13.6752 1.73823 13.4641 1.87887 13.2865 2.0565C13.1088 2.23412 12.9682 2.44521 12.8727 2.67754C12.7772 2.90987 12.7287 3.15883 12.73 3.41003C12.7287 4.73456 12.2892 6.02144 11.48 7.07003L9.15 10.07H7" stroke="white" stroke-width="1.4" stroke-miterlimit="10"/>
<path d="M7 9H1V23H7V9Z" stroke="white" stroke-width="1.4" stroke-miterlimit="10"/>
</g>
<defs>
<clipPath id="clip0_3331_1779">
<rect width="24" height="24" fill="white"/>
</clipPath>
</defs>
</svg>
