<svg width="24" height="24" viewBox="0 0 24 24" fill="none" xmlns="http://www.w3.org/2000/svg">
<g clip-path="url(#clip0_3331_1763)">
<path d="M19.5013 12.5722L12.0013 20.0002L4.50128 12.5722C4.00658 12.0908 3.61692 11.5122 3.35683 10.8728C3.09673 10.2334 2.97184 9.54713 2.99002 8.85711C3.00819 8.16709 3.16904 7.48831 3.46244 6.86351C3.75583 6.23871 4.17541 5.68143 4.69476 5.22676C5.21411 4.77208 5.82198 4.42987 6.48009 4.22166C7.1382 4.01345 7.83228 3.94376 8.51865 4.01698C9.20501 4.0902 9.86878 4.30473 10.4682 4.64708C11.0675 4.98943 11.5895 5.45218 12.0013 6.00618C12.4148 5.4562 12.9374 4.9975 13.5364 4.65878C14.1353 4.32007 14.7978 4.10863 15.4822 4.0377C16.1666 3.96677 16.8584 4.03787 17.5141 4.24657C18.1697 4.45526 18.7753 4.79705 19.2928 5.25054C19.8104 5.70403 20.2287 6.25946 20.5217 6.88207C20.8147 7.50468 20.976 8.18106 20.9956 8.86889C21.0152 9.55671 20.8925 10.2412 20.6354 10.8794C20.3783 11.5177 19.9922 12.096 19.5013 12.5782" stroke="white" stroke-width="1.4" stroke-linecap="round" stroke-linejoin="round"/>
</g>
<defs>
<clipPath id="clip0_3331_1763">
<rect width="24" height="24" fill="white"/>
</clipPath>
</defs>
</svg>
