<svg width="24" height="24" viewBox="0 0 24 24" fill="none" xmlns="http://www.w3.org/2000/svg">
<g clip-path="url(#clip0_3331_1784)">
<path d="M20.9989 12.3001C21.0592 10.495 20.575 8.71347 19.6093 7.18721C18.6435 5.66096 17.2409 4.46058 15.5838 3.74215C13.9267 3.02373 12.0918 2.8205 10.3177 3.15889C8.54353 3.49729 6.91224 4.36165 5.63592 5.63959C4.3596 6.91752 3.49731 8.5499 3.16116 10.3245C2.82501 12.0991 3.03056 13.9337 3.75108 15.5899C4.47161 17.2461 5.67376 18.6472 7.20124 19.611C8.72872 20.5748 10.5108 21.0567 12.3159 20.9941" stroke="white" stroke-width="1.4" stroke-linecap="round" stroke-linejoin="round"/>
<path d="M12 7V12L14 14" stroke="white" stroke-width="1.4" stroke-linecap="round" stroke-linejoin="round"/>
<path d="M16 19C16 19.7956 16.3161 20.5587 16.8787 21.1213C17.4413 21.6839 18.2044 22 19 22C19.7956 22 20.5587 21.6839 21.1213 21.1213C21.6839 20.5587 22 19.7956 22 19C22 18.2044 21.6839 17.4413 21.1213 16.8787C20.5587 16.3161 19.7956 16 19 16C18.2044 16 17.4413 16.3161 16.8787 16.8787C16.3161 17.4413 16 18.2044 16 19Z" stroke="white" stroke-width="1.4" stroke-linecap="round" stroke-linejoin="round"/>
</g>
<defs>
<clipPath id="clip0_3331_1784">
<rect width="24" height="24" fill="white"/>
</clipPath>
</defs>
</svg>
