<svg width="32" height="32" viewBox="0 0 32 32" fill="none" xmlns="http://www.w3.org/2000/svg">
<g clip-path="url(#clip0_2307_25476)">
<path d="M20 6.6665V9.33317" stroke="white" stroke-width="2" stroke-linecap="round" stroke-linejoin="round"/>
<path d="M20 14.6665V17.3332" stroke="white" stroke-width="2" stroke-linecap="round" stroke-linejoin="round"/>
<path d="M20 22.6665V25.3332" stroke="white" stroke-width="2" stroke-linecap="round" stroke-linejoin="round"/>
<path d="M6.66667 6.6665H25.3333C26.0406 6.6665 26.7189 6.94746 27.219 7.44755C27.719 7.94765 28 8.62593 28 9.33317V13.3332C27.2928 13.3332 26.6145 13.6141 26.1144 14.1142C25.6143 14.6143 25.3333 15.2926 25.3333 15.9998C25.3333 16.7071 25.6143 17.3854 26.1144 17.8855C26.6145 18.3856 27.2928 18.6665 28 18.6665V22.6665C28 23.3737 27.719 24.052 27.219 24.5521C26.7189 25.0522 26.0406 25.3332 25.3333 25.3332H6.66667C5.95942 25.3332 5.28115 25.0522 4.78105 24.5521C4.28095 24.052 4 23.3737 4 22.6665V18.6665C4.70724 18.6665 5.38552 18.3856 5.88562 17.8855C6.38572 17.3854 6.66667 16.7071 6.66667 15.9998C6.66667 15.2926 6.38572 14.6143 5.88562 14.1142C5.38552 13.6141 4.70724 13.3332 4 13.3332V9.33317C4 8.62593 4.28095 7.94765 4.78105 7.44755C5.28115 6.94746 5.95942 6.6665 6.66667 6.6665Z" stroke="white" stroke-width="2" stroke-linecap="round" stroke-linejoin="round"/>
</g>
<defs>
<clipPath id="clip0_2307_25476">
<rect width="32" height="32" fill="white"/>
</clipPath>
</defs>
</svg>
